<svg xmlns="http://www.w3.org/2000/svg" viewBox="0 0 1920 1160" font-family="-apple-system, 'Segoe UI', Helvetica, Arial, sans-serif">
  <defs><marker id="arw" viewBox="0 0 10 10" refX="9" refY="5" markerWidth="7" markerHeight="7" orient="auto-start-reverse"><path d="M0 0 L10 5 L0 10 z" fill="#64748b"/></marker></defs>
  <style>
    .band1 { fill: #fff; stroke: #0369a1; stroke-width: 3; } .band2 { fill: #fff; stroke: #4338ca; stroke-width: 3; }
    .bx { fill: #f8fafc; stroke: #94a3b8; stroke-width: 2; } .bxp { fill: #fff; stroke: #0369a1; stroke-width: 2.5; } .bxo { fill: #fff; stroke: #4338ca; stroke-width: 2.5; }
    .warn { fill: #fef2f2; stroke: #dc2626; stroke-width: 1.5; stroke-dasharray: 7 6; } .tip { fill: #eff6ff; stroke: #0369a1; stroke-width: 1.5; } .win { fill: #eef2ff; stroke: #4338ca; stroke-width: 1.5; }
    .title { font-size: 36px; font-weight: 800; fill: #0f172a; } .bandt { font-size: 26px; font-weight: 800; }
    .t { font-size: 19px; font-weight: 600; fill: #0f172a; } .s { font-size: 15px; fill: #475569; } .m { text-anchor: middle; }
    .arr { stroke: #64748b; stroke-width: 2.5; fill: none; marker-end: url(#arw); } .ntb { font-size: 15px; font-weight: 700; fill: #fff; text-anchor: middle; }
  </style>
  <rect x="0" y="0" width="1920" height="1160" fill="#ffffff"/>
  <text class="title m" x="960" y="52">The Big Picture — Networking: the school post · the post room is in the repo</text>

  <rect class="band1" x="40" y="80" width="1840" height="470" rx="20"/>
  <text class="bandt" x="70" y="122" fill="#0369a1">📮 PART 1 — THE POST (lessons 1–6)</text>
  <rect class="bxp" x="70" y="150" width="420" height="150" rx="16"/>
  <text class="t m" x="280.0" y="184">📮 an address, a room, a road (1–3)</text>
  <text class="s m" x="280.0" y="210">IP address = the building · port = the room</text>
  <text class="s m" x="280.0" y="234">a socket = one desk: (ip:port ↔ ip:port)</text>
  <text class="s m" x="280.0" y="258">192.168.0.0/24 = the wing · NAT at the gate</text>
  <g transform="translate(70,150)"><circle r="16" fill="#0369a1"/><text class="ntb" y="5">1</text></g>

  <line class="arr" x1="495" y1="225" x2="515" y2="225"/>
  <rect class="bxp" x="520" y="150" width="420" height="150" rx="16"/>
  <text class="t m" x="730.0" y="184">📦 the delivery chain (4)</text>
  <text class="s m" x="730.0" y="210">letter (HTTP) → envelope (TCP/UDP) →</text>
  <text class="s m" x="730.0" y="234">bag (IP) → van (Ethernet/Wi-Fi) → road</text>
  <text class="s m" x="730.0" y="258">each layer reads only its own label</text>
  <g transform="translate(520,150)"><circle r="16" fill="#0369a1"/><text class="ntb" y="5">2</text></g>

  <line class="arr" x1="945" y1="225" x2="965" y2="225"/>
  <rect class="bxp" x="970" y="150" width="420" height="150" rx="16"/>
  <text class="t m" x="1180.0" y="184">📬 registered post vs the loudspeaker (5)</text>
  <text class="s m" x="1180.0" y="210">TCP: handshake, receipts, order — a stream</text>
  <text class="s m" x="1180.0" y="234">UDP: shout once, some are lost — datagrams</text>
  <text class="s m" x="1180.0" y="258">you add message boundaries to a stream</text>
  <g transform="translate(970,150)"><circle r="16" fill="#0369a1"/><text class="ntb" y="5">3</text></g>

  <line class="arr" x1="1395" y1="225" x2="1415" y2="225"/>
  <rect class="bxp" x="1420" y="150" width="420" height="150" rx="16"/>
  <text class="t m" x="1630.0" y="184">📖 the directory (6)</text>
  <text class="s m" x="1630.0" y="210">a name → an address, asked over UDP 53</text>
  <text class="s m" x="1630.0" y="234">root → .com → example.com · TTL = how long to remember</text>
  <text class="s m" x="1630.0" y="258">'is it DNS?' is question one of every outage</text>
  <g transform="translate(1420,150)"><circle r="16" fill="#0369a1"/><text class="ntb" y="5">4</text></g>

  <rect class="tip" x="70" y="340" width="890" height="170" rx="16"/>
  <text class="t m" x="515.0" y="374">🐍 net/demo.py — the post room, zero dependencies</text>
  <text class="s m" x="515.0" y="400">tcp · udp · ports · dns (a 29-byte question by hand) · http (typed onto a socket) · tls (reads the certificate) · route</text>
  <text class="s m" x="515.0" y="424">every section is one lesson; run one, read the twenty lines behind it, then run the real tool beside it</text>

  <rect class="warn" x="990" y="340" width="860" height="170" rx="16"/>
  <text class="t m" x="1420.0" y="374">⚠️ the two mistakes every first outage makes</text>
  <text class="s m" x="1420.0" y="400">debugging the app (L7) when the name (DNS) or the gate (firewall) is the fault —</text>
  <text class="s m" x="1420.0" y="424">and reading 'timed out' as 'server down' when it means 'the gate dropped you'</text>

  <text class="t m" x="960" y="590">python3 net/demo.py · bash net/lab.sh example.com — the whole course, in two commands</text>
  <rect class="band2" x="40" y="620" width="1840" height="500" rx="20"/>
  <text class="bandt" x="70" y="662" fill="#4338ca">🏗️ PART 2 — THE BUILDING (lessons 7–12)</text>
  <rect class="bxo" x="70" y="690" width="420" height="190" rx="16"/>
  <text class="t m" x="280.0" y="724">📨🔒 the slip and the seal (7–8)</text>
  <text class="s m" x="280.0" y="750">HTTP is text on a stream: request line, headers,</text>
  <text class="s m" x="280.0" y="774">blank line, body · /1.1 keep-alive, /2 multiplexed, /3 QUIC</text>
  <text class="s m" x="280.0" y="798">TLS: a certificate a CA signed, then a sealed envelope</text>
  <text class="s m" x="280.0" y="822">expiry and wrong names break the seal</text>
  <g transform="translate(70,690)"><circle r="16" fill="#0369a1"/><text class="ntb" y="5">1</text></g>

  <line class="arr" x1="495" y1="785" x2="515" y2="785"/>
  <rect class="bxo" x="520" y="690" width="420" height="190" rx="16"/>
  <text class="t m" x="730.0" y="724">🧭🚧 corridors and the gate (9–10)</text>
  <text class="s m" x="730.0" y="750">a route: prefix → next hop; nobody has the whole map</text>
  <text class="s m" x="730.0" y="774">traceroute shows every porter · MTU ~1500</text>
  <text class="s m" x="730.0" y="798">firewall: allow-lists, stateful · refused vs timed out</text>
  <text class="s m" x="730.0" y="822">NAT rewrites the from-address · VPN = a tunnel inside</text>
  <g transform="translate(520,690)"><circle r="16" fill="#0369a1"/><text class="ntb" y="5">2</text></g>

  <line class="arr" x1="945" y1="785" x2="965" y2="785"/>
  <rect class="bxo" x="970" y="690" width="420" height="190" rx="16"/>
  <text class="t m" x="1180.0" y="724">🏪 the reception desk (11)</text>
  <text class="s m" x="1180.0" y="750">load balancer: L4 by ip:port · L7 by URL</text>
  <text class="s m" x="1180.0" y="774">health checks skip a sick counter · TLS ends here</text>
  <text class="s m" x="1180.0" y="798">CDN: a copy of the notice board in every city</text>
  <text class="s m" x="1180.0" y="822">Kubernetes Service / Ingress · AWS NLB / ALB</text>
  <g transform="translate(970,690)"><circle r="16" fill="#0369a1"/><text class="ntb" y="5">3</text></g>

  <line class="arr" x1="1395" y1="785" x2="1415" y2="785"/>
  <rect class="bxo" x="1420" y="690" width="420" height="190" rx="16"/>
  <text class="t m" x="1630.0" y="724">🔧 the ladder (12)</text>
  <text class="s m" x="1630.0" y="750">DNS → ping → traceroute → nc → openssl → curl -v → logs</text>
  <text class="s m" x="1630.0" y="774">the first rung that fails names the cause</text>
  <text class="s m" x="1630.0" y="798">latency ≠ bandwidth · NXDOMAIN, refused, timed out, reset</text>
  <text class="s m" x="1630.0" y="822">capstone: a one-page runbook per service</text>
  <g transform="translate(1420,690)"><circle r="16" fill="#0369a1"/><text class="ntb" y="5">4</text></g>

  <rect class="win" x="70" y="950" width="1780" height="140" rx="14"/>
  <text class="t m" x="960" y="990">🧭 read one envelope, read them all: address → room → road → contract → name → seal → gate → desk</text>
  <text class="s m" x="960" y="1020">every 'it's down' is one of seven questions, asked in order · siblings: the API school fills the envelope · AWS rents the building · Kubernetes puts a desk in every cluster</text>
</svg>